<mxfile host="app.diagrams.net" modified="2021-10-10T12:38:35.519Z" agent="5.0 (Windows NT 10.0; Win64; x64) AppleWebKit/537.36 (KHTML, like Gecko) Chrome/94.0.4606.81 Safari/537.36" etag="UhvNwsYrTmsr2XGQdDuR" version="15.5.0" type="github">
  <diagram id="LlMlyX4GnYd1PXR6gKBm" name="Page-1">
    <mxGraphModel dx="1038" dy="500" grid="1" gridSize="10" guides="1" tooltips="1" connect="1" arrows="1" fold="1" page="1" pageScale="1" pageWidth="850" pageHeight="1100" math="0" shadow="0">
      <root>
        <mxCell id="0" />
        <mxCell id="1" parent="0" />
        <mxCell id="7nh8fBi0n3IucL0GTQGL-36" style="edgeStyle=orthogonalEdgeStyle;rounded=0;orthogonalLoop=1;jettySize=auto;html=1;entryX=-0.011;entryY=0.605;entryDx=0;entryDy=0;entryPerimeter=0;" edge="1" parent="1" source="7nh8fBi0n3IucL0GTQGL-1" target="7nh8fBi0n3IucL0GTQGL-24">
          <mxGeometry relative="1" as="geometry">
            <mxPoint x="260" y="112" as="targetPoint" />
          </mxGeometry>
        </mxCell>
        <mxCell id="7nh8fBi0n3IucL0GTQGL-37" style="edgeStyle=orthogonalEdgeStyle;rounded=0;orthogonalLoop=1;jettySize=auto;html=1;entryX=0;entryY=0.5;entryDx=0;entryDy=0;" edge="1" parent="1" source="7nh8fBi0n3IucL0GTQGL-1" target="7nh8fBi0n3IucL0GTQGL-33">
          <mxGeometry relative="1" as="geometry">
            <mxPoint x="260" y="235" as="targetPoint" />
            <Array as="points">
              <mxPoint x="230" y="112" />
              <mxPoint x="230" y="229" />
            </Array>
          </mxGeometry>
        </mxCell>
        <mxCell id="7nh8fBi0n3IucL0GTQGL-1" value="" style="shape=image;html=1;verticalAlign=top;verticalLabelPosition=bottom;labelBackgroundColor=#ffffff;imageAspect=0;aspect=fixed;image=https://cdn0.iconfinder.com/data/icons/font-awesome-brands-vol-1/512/jenkins-128.png" vertex="1" parent="1">
          <mxGeometry x="180" y="92" width="40" height="40" as="geometry" />
        </mxCell>
        <mxCell id="7nh8fBi0n3IucL0GTQGL-28" style="edgeStyle=orthogonalEdgeStyle;rounded=0;orthogonalLoop=1;jettySize=auto;html=1;" edge="1" parent="1">
          <mxGeometry relative="1" as="geometry">
            <mxPoint x="500" y="101.85000000000002" as="targetPoint" />
            <mxPoint x="530" y="101.89999999999998" as="sourcePoint" />
          </mxGeometry>
        </mxCell>
        <mxCell id="7nh8fBi0n3IucL0GTQGL-2" value="" style="shape=image;html=1;verticalAlign=top;verticalLabelPosition=bottom;labelBackgroundColor=#ffffff;imageAspect=0;aspect=fixed;image=https://cdn1.iconfinder.com/data/icons/material-communication/18/call-merge-128.png;direction=north;" vertex="1" parent="1">
          <mxGeometry x="530" y="77.85" width="46" height="46" as="geometry" />
        </mxCell>
        <mxCell id="7nh8fBi0n3IucL0GTQGL-3" value="MS Codebase" style="shape=image;html=1;verticalAlign=top;verticalLabelPosition=bottom;labelBackgroundColor=#ffffff;imageAspect=0;aspect=fixed;image=https://cdn3.iconfinder.com/data/icons/social-media-2169/24/social_media_social_media_logo_git-128.png" vertex="1" parent="1">
          <mxGeometry x="600" y="40" width="40" height="40" as="geometry" />
        </mxCell>
        <mxCell id="7nh8fBi0n3IucL0GTQGL-6" value="Chart Repository" style="shadow=0;dashed=0;html=1;strokeColor=none;fillColor=#4495D1;labelPosition=center;verticalLabelPosition=bottom;verticalAlign=top;align=center;outlineConnect=0;shape=mxgraph.veeam.2d.backup_repository;" vertex="1" parent="1">
          <mxGeometry x="607" y="212" width="33" height="40" as="geometry" />
        </mxCell>
        <mxCell id="7nh8fBi0n3IucL0GTQGL-10" value="Common Helm Template" style="shape=image;html=1;verticalAlign=top;verticalLabelPosition=bottom;labelBackgroundColor=#ffffff;imageAspect=0;aspect=fixed;image=https://cdn3.iconfinder.com/data/icons/social-media-2169/24/social_media_social_media_logo_git-128.png" vertex="1" parent="1">
          <mxGeometry x="600" y="126" width="40" height="40" as="geometry" />
        </mxCell>
        <mxCell id="7nh8fBi0n3IucL0GTQGL-24" value="Merge custom template to codebase&lt;br&gt;Create Helm Chart&lt;br&gt;Package Helm Chart" style="rounded=1;whiteSpace=wrap;html=1;" vertex="1" parent="1">
          <mxGeometry x="270" y="72" width="220.89" height="66.78" as="geometry" />
        </mxCell>
        <mxCell id="7nh8fBi0n3IucL0GTQGL-18" value="K8S Cluster" style="sketch=0;aspect=fixed;html=1;points=[];align=center;image;fontSize=12;image=img/lib/mscae/Kubernetes.svg;" vertex="1" parent="1">
          <mxGeometry x="606" y="324.28" width="35" height="33.6" as="geometry" />
        </mxCell>
        <mxCell id="7nh8fBi0n3IucL0GTQGL-35" style="edgeStyle=orthogonalEdgeStyle;rounded=0;orthogonalLoop=1;jettySize=auto;html=1;" edge="1" parent="1" source="7nh8fBi0n3IucL0GTQGL-23">
          <mxGeometry relative="1" as="geometry">
            <mxPoint x="170" y="112" as="targetPoint" />
          </mxGeometry>
        </mxCell>
        <mxCell id="7nh8fBi0n3IucL0GTQGL-23" value="DevOps" style="shape=umlActor;verticalLabelPosition=bottom;verticalAlign=top;html=1;outlineConnect=0;" vertex="1" parent="1">
          <mxGeometry x="80" y="90.36" width="20" height="43.28" as="geometry" />
        </mxCell>
        <mxCell id="7nh8fBi0n3IucL0GTQGL-40" style="edgeStyle=orthogonalEdgeStyle;rounded=0;orthogonalLoop=1;jettySize=auto;html=1;" edge="1" parent="1" source="7nh8fBi0n3IucL0GTQGL-33">
          <mxGeometry relative="1" as="geometry">
            <mxPoint x="580" y="228.7199999999999" as="targetPoint" />
          </mxGeometry>
        </mxCell>
        <mxCell id="7nh8fBi0n3IucL0GTQGL-33" value="Push Helm Chart to Repository" style="rounded=1;whiteSpace=wrap;html=1;" vertex="1" parent="1">
          <mxGeometry x="270" y="195.32999999999998" width="220.89" height="66.78" as="geometry" />
        </mxCell>
        <mxCell id="7nh8fBi0n3IucL0GTQGL-29" value="" style="verticalLabelPosition=bottom;sketch=0;aspect=fixed;html=1;verticalAlign=top;strokeColor=none;align=center;outlineConnect=0;shape=mxgraph.citrix.process;" vertex="1" parent="1">
          <mxGeometry x="460" y="104.57" width="23" height="27.43" as="geometry" />
        </mxCell>
        <mxCell id="7nh8fBi0n3IucL0GTQGL-50" style="edgeStyle=orthogonalEdgeStyle;rounded=0;orthogonalLoop=1;jettySize=auto;html=1;entryX=0;entryY=0.5;entryDx=0;entryDy=0;" edge="1" parent="1" source="7nh8fBi0n3IucL0GTQGL-32" target="7nh8fBi0n3IucL0GTQGL-42">
          <mxGeometry relative="1" as="geometry" />
        </mxCell>
        <mxCell id="7nh8fBi0n3IucL0GTQGL-32" value="" style="shape=image;html=1;verticalAlign=top;verticalLabelPosition=bottom;labelBackgroundColor=#ffffff;imageAspect=0;aspect=fixed;image=https://cdn0.iconfinder.com/data/icons/font-awesome-brands-vol-1/512/jenkins-128.png" vertex="1" parent="1">
          <mxGeometry x="180" y="321.08" width="40" height="40" as="geometry" />
        </mxCell>
        <mxCell id="7nh8fBi0n3IucL0GTQGL-41" value="" style="shape=image;imageAspect=0;aspect=fixed;verticalLabelPosition=bottom;verticalAlign=top;image=data:image/png,iVBORw0KGgoAAAANSUhEUgAAANEAAADxCAMAAABiSKLrAAAAsVBMVEX///8PFokAAIMAAIGoqtALE4jc3ekAAIYAAIIAAH6usNMKEojKy+IADIfv7/kIEIiSlcWztNQvNJWPksW7vdrX2etjZ65eYq4WHo5zdrTExt/y8/kyOZr3+PsiKJBKTp5naahRVKHl5vNSVaibnsvS0+chJ5ApLpNvcrVDSaOBhL0wNJMVHZA8QZ1BRJl5fLV/gbWnqMt/gr0AAHVvcrJlaKyXmMNOUZ08QJeeoMdITaSWyTufAAAOOElEQVR4nO1dC3eqOBCWYAyKIbWioBQttGqvrbXbrd3q//9h67OSDKKQ4OMevnPP7jkXb5Ivj8lkMpMplc4Fa/7U7vpnqy5/tPo6NdDYu3Q7lCEcEW0J1Ll0Q5Shg7Q1jO6lW6IIXYw3jGjfunRblMDvEG0L0rh0Y5SgwvCOkRH8FfLuDmm/MMJLt0YF7tmeEWpeujUKMEB4z4j2L90cBSiTPSGN3bcu3R55fEQZYXr70s5zaISRhuaXbpA0KlHBsNyRpjcvv1sURxnRp5tXV+tGlJDGhjevCM0Rx0gjN89oLDDSb15reCECo/qlWyQLh19HmlG7dItk8YfyjFD50i2SxQMTGD1fukWyuL9CRnLCSTEjeUnpfxJEFo3sBSmcda15b9kYWclyZ+ClwmyM5lnVMSAZsqqq4Qc1lud7RuyMBWzQYuZGeSFuxoONIzDKKr1rlGwURDqR0gwb+q4l1M02XdTssN6U/M5eJKVHNfc6DCPjLDOvqUILCvtkr8HrUsfgqFaGUTtD79R4RjiLplqfRAdaH6QvYY87rj3ISd8cBaeJQY9rhZyu2+Xbg4LU7RkQ/sS3SL2uuyNOuGAmtY6EE6iG2mnXkngq76QtIHR5aZmhT7jiFuJ2MkvZIq/NDTP5J2ULKq9iCySNmFNB+GpknLIE3rrF0u6PfdAASaWhLBaI0x4HapwF8jXlsm4Lwj99CSIsfmGvihyl2g+sLotaiZ101ZepWD1KWQLETBwkjb4dX0q+FVZqn85i5GputE24F7w07TC0TluNA2KKtcvfE9YBIw0dWUqtxvfjBOsIGZSZmO9kTAkykNvvzLvHRZYnyqVldz5IWzA9MJOTjNdeWGv/DCkhTJwtHMzlL7TX4LmSzKoJe1P6MLFEAzDS2FtsSzx7HhADLcclic1vvzCK0OTOPrxf1sEa1tiPCuPYBAx93LzzW1/vGgEL+QgoopNZPX4i+XDOacadAkIlGw6S6QpngkptglLTWQMzYvS+45TPOZxzzFVyD+A7MdOZc7YIx68E9ufpYGjYBjuv9Q6LJIpMY4MhkKGRg5vXdZZrR4LPCibSR4Ixo2mAX6XXKg/hM6bw3UZnBwTOyixg5KccabBlwm6sqrvyfAeUNgqaPxjpmVZPLKhBGr9CNE5yK7xo77pgWpHpcit9pDLLB8IkwXarC+EqMpT64JRjBmnQpHDDkAUlk/UKhbsgplKncYAZqIH10DE+JqNLIELQEoQQSlmyLrHh1LSgmU+9eTnsgyqS28YIIsPJe/+/oP0yHd81x5+dWdD/GbnLv6eJohGTnh3q4t+qv5JukZMl9FK9Mcho9t2oh6K2ZLW6jflHMKwilDBajEzEyshE/W2nzaA4jW0Nve+PbSvpvOB5rWfnNUlnEgnRUR6XnbWj62Z5wDVGH43TLBt+99shSSMVJeiqlQo7fCdTwoSYjp2mL73K3fLkcXw2M5KXO2g5SVpT+ljLMNe709GxsWe9/G6jnw9VjokxGWQURuGYoKSNmqJ8ptwGwNi1AcGPUrWW+4dHHz3k6cD2HLcJYaI7WcdnB2tODujv+qiipu1x8MfQNLOaFC8qOtFqDuPGn03yHKFOzNTAaKTK5WLQ1mOGCSmxLMTCn8acg+hbR6F32XwUM0zkPa9R+oK1YfSgVq622jGriUxyGSVf9MFaDZDWVK1s+eVezEkvyINSDCHSz2Mnb83gakV99ZTmYGvFKMjHP9N/hnoRaquuq0ZFsY1pft719hAe977UVjEAZgZq5OlUNoDmJZVWk1Kp0hP7DN3n68kYBiIlrMr4uAK0qaI8NZM1rCfxWM6G6rYlsLNmcWtIC78pijzqqpIOtnh2Ru5ZHJzvxI4kn2psJy1RKtBJ3lNuC9GqiomamIu+gXjgMxEq+S86XzOR83HawnbaPGbnCyDyxkLdTvPmw0gKFChQoECBAgUKFChQoECBvxdWJQrxEM9/FT76lSPgf+5x345b3ja/O92Mtiu3WdV/UX0Tr7vHka/6v0Lp3X/1JFQFH9kuiX48ftG5Lr168sXRM1r/vsxZ+eAzMVwIXlVgVAfeVbxRV/Cdr0eDDdDx51uqG6PjiffK2xtiVLt6Rho6xSHIe9nebt0CI40OjwYs+Yud8fUmGGnMOEIp7P828zYYaUxLvDkKI5GlN8JIM6vfh43D9agLxK0w0jA9GPBU5yJLb4aRhnUnfk+u8W5sKhmt3aCjIPcKGS03plhKZcGfVSEjPOmLcASdQY6RRh6g+nAnOj4oZMTKniVA6FNZRhp5FzXLMXBOUcjo+Kt0krNu9Y/4y3JvCj1Mb4yRRkeRvdaHAZO3x0ij+2pCGMdxi4yWEnUbDRK+x0ZxiYxer56RZpLv1cfWe7xLMxijOi+wvLFCRtKybgOMpn6pTg/E2QmMNHcR8LiPuqAlS++jKr+aMdJWrynYwPHqECOw8XM+dck77MLhARQxRWO0omQcDLQAjBJxRAsykLH5s/nPIrcxSoJKRgLoU8GoYHR5RlKSgcVvP6uKks5H18uIOgeChDSyeObKvZVZR6alGEV79SGw6tpNMurEuK1qmzezurfKaPX+BAiRXT0vlRsjQd1A6hmVyrwUwMbX6tyfzIii351/vflznZKsBb0L7pdKtaDtgx31qD6H2aaKREbuk6CccaHQR+wMvscBmAwVMIpaG83q1q84iRE8H91dyfno91EV72dLibm7G6hERld7ht0/E7ONp6D7GOZbZ1QqtZdSnI72cSi3z8ifIhI1c12OkQrJsG3VT9QUeS2M7gZ1AWLQ82FGJc5aeyWMsNsTMBRfDkxgxJebE6OUlhMNmwLo8MoYmf1HEZ2E2xYIs3dljJYKFEGbP7v/j26cEUDiHV/BqGBUMCoYFYwKRhyjZnUfbaqDwO3oVyT6QNarKAn6UPSBFONqORhYYPRv5GM14SkDrtxquTQoRwDemOK+iik0wnk5EYLuGib/ulwT/B+40hPe6uDLPVfwcYECBQoUKFCgQIECBQoUKFCgwBpWwxZwrqfELLFiW82r2JZDBBfj0XmyWYOK0ZuiisMhxRwoOccoeQ7iq8VILjFsBLborUfv83wUfQMLPqf5oq70Z9FnjRrHHRLkUCGAUKDwNT6/L1IysZLsVwchJOdcdaKr9Gli7wc82GociH5Ughp4upz1FK/d1j0Ivsjnieo1miD7iHncBSQtWm+Q0igf+RA68J1qkkPadhvmdKJDNe+b8ijDl+Wx2meWd+jCV7cZcVTvTOEXfFYey2aEPYQaHCWNkLnSF327boyn+iq/Vz5oxCRiwmSi7ml5/wVkCVqNUKak4qeh5saEm1HUUTT1Gg8xA4Td/N56X6ILJd4S6HWsYOoNZrHpaFjOT4m3+nExdAyhsaQkH7T1A7loGMor99EGs/gwR4zcscTcq3+9HYww0pib45P83uJgnIVJqu16pskX2veHxmdbdDW3peTFJCGNgJCgmfpMNribHE1bmlsmCH+SSEhb+crT0bh18kh54Sqr7AlJ8XLaY/3YcHuxboZI//uUtRza386bcWKaT0zzWEuHYukAKNF+nKYdis9o7OB7od3pjzAxDib4oyJTRpQdyX9RThHPiVchzGgYfPxTa9jdQWWVbdD3rLA16Nq17/YD0QlNSMSH0TtIfMOYak2//gY69GjSObryLNbc0evP+3/9/vvP5L7nmgQdS/hLzY5XAjOc/lF7HrNgchjSOSm3MsYm28TEMQbyscf1A3paCcwXMMfRTCkjmHGL/rHqi8Q8elnAyNvzWlbG5CpHKqVDTKLtdXL3miOdM5pv9GiX9cqfgSqZKgvkEhY8GrFN6IZXdg1V48QImu3V0hrsRPSjjFEASzd+T/7zQCpX+Q4mep1ya/8Blqqrsql1oaRlb/vNxrIXxunpcGOBqUG/hWNDA6YUZzFPVWWBt4AJiQlvbWp1JhJZyxnSgmdwUPXbMfPuUwmjGuwsA5hsw5pjIJBt7DgwI7r70Y1TL+pQRcJExSB59zHWmbjDUNjs90i66UeR9tOxD9kRYpI0EhUZ0mIkNzr05t/gn6+hjpI0nF+Yy5Mv+nMXOzpbWFA4YFdegltwFdGEtIy+N2gGr9oqhffBKbhUjwgZvrbnx17zbcB5Rw4+oHgybLiK9GNGaK9b/v5auEhHIDc5NXQyCqbz8kmKJ8zUiIn0DcITVOjap/w73wor3XLzJfgT7WfatwdhCAPpDyBm3kknAgyBfkX76XppQLl/nK76Vg/kNkxZAgCQCyxtHufnaAks7YVGuSqe/SSvRPxHgRHT0h4m+bMvSXsR1BSXkmTyxIqwGWGU9ibHCvgnfdLe0PgzQTSRjpQdfMAPUYabnAq/EshL6vYIejJ7kJJ2vLqIM+wGLb49dJG6PZaD+EZIWdm5WZzprk3Yz8y39O3x+VHSpXS7TqQslunycC6sbJShh71Z1EqjS91WRDZtmk3IfArCMlt7viIasNwYNXbxhxgtstkAxZdc9WyXJ3N3t9VnmbcRVIbrvjGJljXTuqjoGhlT0IcB2kw9JCe9SzVCVn5g08y3QxOBUeoN6RddZ90WEOSaFvXZ5KkJ0oWcjgfxxerszhbeoL2YdC4eTymegCUYXQn+PkYKZ92V4I8oGfJM3X4WOILqfCzFx/VDvDbR8/dxzRniiU1Oh7kGCOZrybPANWDAjxG7z9G/9TxomZzpgwY3zyic8Kfyj0s3SBqCNYlkVL2vCc0oI5zaOHaFaHAWyJ+bF3XLM0D0ggE5l26OCkRPsdJ2+KvAPLLH3v7+ukK4t6oShTFEl8SvtMNmvl60Z0Nr57JC2vk5o58XW7sqU3J3fxXwH1emNiZ583NV8D8QMuhfoC5E0J2XzxFz+j/SkTeQvSVZYQAAAABJRU5ErkJggg==;" vertex="1" parent="1">
          <mxGeometry x="462.11" y="227.91000000000003" width="20.89" height="24.09" as="geometry" />
        </mxCell>
        <mxCell id="7nh8fBi0n3IucL0GTQGL-51" style="edgeStyle=orthogonalEdgeStyle;rounded=0;orthogonalLoop=1;jettySize=auto;html=1;" edge="1" parent="1" source="7nh8fBi0n3IucL0GTQGL-42">
          <mxGeometry relative="1" as="geometry">
            <mxPoint x="580" y="341" as="targetPoint" />
          </mxGeometry>
        </mxCell>
        <mxCell id="7nh8fBi0n3IucL0GTQGL-42" value="&lt;br&gt;Deploy Helm Chart to Cluster" style="rounded=1;whiteSpace=wrap;html=1;" vertex="1" parent="1">
          <mxGeometry x="270" y="307.69" width="220.89" height="66.78" as="geometry" />
        </mxCell>
        <mxCell id="7nh8fBi0n3IucL0GTQGL-44" value="" style="shape=image;imageAspect=0;aspect=fixed;verticalLabelPosition=bottom;verticalAlign=top;image=data:image/png,iVBORw0KGgoAAAANSUhEUgAAANEAAADxCAMAAABiSKLrAAAAsVBMVEX///8PFokAAIMAAIGoqtALE4jc3ekAAIYAAIIAAH6usNMKEojKy+IADIfv7/kIEIiSlcWztNQvNJWPksW7vdrX2etjZ65eYq4WHo5zdrTExt/y8/kyOZr3+PsiKJBKTp5naahRVKHl5vNSVaibnsvS0+chJ5ApLpNvcrVDSaOBhL0wNJMVHZA8QZ1BRJl5fLV/gbWnqMt/gr0AAHVvcrJlaKyXmMNOUZ08QJeeoMdITaSWyTufAAAOOElEQVR4nO1dC3eqOBCWYAyKIbWioBQttGqvrbXbrd3q//9h67OSDKKQ4OMevnPP7jkXb5Ivj8lkMpMplc4Fa/7U7vpnqy5/tPo6NdDYu3Q7lCEcEW0J1Ll0Q5Shg7Q1jO6lW6IIXYw3jGjfunRblMDvEG0L0rh0Y5SgwvCOkRH8FfLuDmm/MMJLt0YF7tmeEWpeujUKMEB4z4j2L90cBSiTPSGN3bcu3R55fEQZYXr70s5zaISRhuaXbpA0KlHBsNyRpjcvv1sURxnRp5tXV+tGlJDGhjevCM0Rx0gjN89oLDDSb15reCECo/qlWyQLh19HmlG7dItk8YfyjFD50i2SxQMTGD1fukWyuL9CRnLCSTEjeUnpfxJEFo3sBSmcda15b9kYWclyZ+ClwmyM5lnVMSAZsqqq4Qc1lud7RuyMBWzQYuZGeSFuxoONIzDKKr1rlGwURDqR0gwb+q4l1M02XdTssN6U/M5eJKVHNfc6DCPjLDOvqUILCvtkr8HrUsfgqFaGUTtD79R4RjiLplqfRAdaH6QvYY87rj3ISd8cBaeJQY9rhZyu2+Xbg4LU7RkQ/sS3SL2uuyNOuGAmtY6EE6iG2mnXkngq76QtIHR5aZmhT7jiFuJ2MkvZIq/NDTP5J2ULKq9iCySNmFNB+GpknLIE3rrF0u6PfdAASaWhLBaI0x4HapwF8jXlsm4Lwj99CSIsfmGvihyl2g+sLotaiZ101ZepWD1KWQLETBwkjb4dX0q+FVZqn85i5GputE24F7w07TC0TluNA2KKtcvfE9YBIw0dWUqtxvfjBOsIGZSZmO9kTAkykNvvzLvHRZYnyqVldz5IWzA9MJOTjNdeWGv/DCkhTJwtHMzlL7TX4LmSzKoJe1P6MLFEAzDS2FtsSzx7HhADLcclic1vvzCK0OTOPrxf1sEa1tiPCuPYBAx93LzzW1/vGgEL+QgoopNZPX4i+XDOacadAkIlGw6S6QpngkptglLTWQMzYvS+45TPOZxzzFVyD+A7MdOZc7YIx68E9ufpYGjYBjuv9Q6LJIpMY4MhkKGRg5vXdZZrR4LPCibSR4Ixo2mAX6XXKg/hM6bw3UZnBwTOyixg5KccabBlwm6sqrvyfAeUNgqaPxjpmVZPLKhBGr9CNE5yK7xo77pgWpHpcit9pDLLB8IkwXarC+EqMpT64JRjBmnQpHDDkAUlk/UKhbsgplKncYAZqIH10DE+JqNLIELQEoQQSlmyLrHh1LSgmU+9eTnsgyqS28YIIsPJe/+/oP0yHd81x5+dWdD/GbnLv6eJohGTnh3q4t+qv5JukZMl9FK9Mcho9t2oh6K2ZLW6jflHMKwilDBajEzEyshE/W2nzaA4jW0Nve+PbSvpvOB5rWfnNUlnEgnRUR6XnbWj62Z5wDVGH43TLBt+99shSSMVJeiqlQo7fCdTwoSYjp2mL73K3fLkcXw2M5KXO2g5SVpT+ljLMNe709GxsWe9/G6jnw9VjokxGWQURuGYoKSNmqJ8ptwGwNi1AcGPUrWW+4dHHz3k6cD2HLcJYaI7WcdnB2tODujv+qiipu1x8MfQNLOaFC8qOtFqDuPGn03yHKFOzNTAaKTK5WLQ1mOGCSmxLMTCn8acg+hbR6F32XwUM0zkPa9R+oK1YfSgVq622jGriUxyGSVf9MFaDZDWVK1s+eVezEkvyINSDCHSz2Mnb83gakV99ZTmYGvFKMjHP9N/hnoRaquuq0ZFsY1pft719hAe977UVjEAZgZq5OlUNoDmJZVWk1Kp0hP7DN3n68kYBiIlrMr4uAK0qaI8NZM1rCfxWM6G6rYlsLNmcWtIC78pijzqqpIOtnh2Ru5ZHJzvxI4kn2psJy1RKtBJ3lNuC9GqiomamIu+gXjgMxEq+S86XzOR83HawnbaPGbnCyDyxkLdTvPmw0gKFChQoECBAgUKFChQoECBvxdWJQrxEM9/FT76lSPgf+5x345b3ja/O92Mtiu3WdV/UX0Tr7vHka/6v0Lp3X/1JFQFH9kuiX48ftG5Lr168sXRM1r/vsxZ+eAzMVwIXlVgVAfeVbxRV/Cdr0eDDdDx51uqG6PjiffK2xtiVLt6Rho6xSHIe9nebt0CI40OjwYs+Yud8fUmGGnMOEIp7P828zYYaUxLvDkKI5GlN8JIM6vfh43D9agLxK0w0jA9GPBU5yJLb4aRhnUnfk+u8W5sKhmt3aCjIPcKGS03plhKZcGfVSEjPOmLcASdQY6RRh6g+nAnOj4oZMTKniVA6FNZRhp5FzXLMXBOUcjo+Kt0krNu9Y/4y3JvCj1Mb4yRRkeRvdaHAZO3x0ij+2pCGMdxi4yWEnUbDRK+x0ZxiYxer56RZpLv1cfWe7xLMxijOi+wvLFCRtKybgOMpn6pTg/E2QmMNHcR8LiPuqAlS++jKr+aMdJWrynYwPHqECOw8XM+dck77MLhARQxRWO0omQcDLQAjBJxRAsykLH5s/nPIrcxSoJKRgLoU8GoYHR5RlKSgcVvP6uKks5H18uIOgeChDSyeObKvZVZR6alGEV79SGw6tpNMurEuK1qmzezurfKaPX+BAiRXT0vlRsjQd1A6hmVyrwUwMbX6tyfzIii351/vflznZKsBb0L7pdKtaDtgx31qD6H2aaKREbuk6CccaHQR+wMvscBmAwVMIpaG83q1q84iRE8H91dyfno91EV72dLibm7G6hERld7ht0/E7ONp6D7GOZbZ1QqtZdSnI72cSi3z8ifIhI1c12OkQrJsG3VT9QUeS2M7gZ1AWLQ82FGJc5aeyWMsNsTMBRfDkxgxJebE6OUlhMNmwLo8MoYmf1HEZ2E2xYIs3dljJYKFEGbP7v/j26cEUDiHV/BqGBUMCoYFYwKRhyjZnUfbaqDwO3oVyT6QNarKAn6UPSBFONqORhYYPRv5GM14SkDrtxquTQoRwDemOK+iik0wnk5EYLuGib/ulwT/B+40hPe6uDLPVfwcYECBQoUKFCgQIECBQoUKFCgwBpWwxZwrqfELLFiW82r2JZDBBfj0XmyWYOK0ZuiisMhxRwoOccoeQ7iq8VILjFsBLborUfv83wUfQMLPqf5oq70Z9FnjRrHHRLkUCGAUKDwNT6/L1IysZLsVwchJOdcdaKr9Gli7wc82GociH5Ughp4upz1FK/d1j0Ivsjnieo1miD7iHncBSQtWm+Q0igf+RA68J1qkkPadhvmdKJDNe+b8ijDl+Wx2meWd+jCV7cZcVTvTOEXfFYey2aEPYQaHCWNkLnSF327boyn+iq/Vz5oxCRiwmSi7ml5/wVkCVqNUKak4qeh5saEm1HUUTT1Gg8xA4Td/N56X6ILJd4S6HWsYOoNZrHpaFjOT4m3+nExdAyhsaQkH7T1A7loGMor99EGs/gwR4zcscTcq3+9HYww0pib45P83uJgnIVJqu16pskX2veHxmdbdDW3peTFJCGNgJCgmfpMNribHE1bmlsmCH+SSEhb+crT0bh18kh54Sqr7AlJ8XLaY/3YcHuxboZI//uUtRza386bcWKaT0zzWEuHYukAKNF+nKYdis9o7OB7od3pjzAxDib4oyJTRpQdyX9RThHPiVchzGgYfPxTa9jdQWWVbdD3rLA16Nq17/YD0QlNSMSH0TtIfMOYak2//gY69GjSObryLNbc0evP+3/9/vvP5L7nmgQdS/hLzY5XAjOc/lF7HrNgchjSOSm3MsYm28TEMQbyscf1A3paCcwXMMfRTCkjmHGL/rHqi8Q8elnAyNvzWlbG5CpHKqVDTKLtdXL3miOdM5pv9GiX9cqfgSqZKgvkEhY8GrFN6IZXdg1V48QImu3V0hrsRPSjjFEASzd+T/7zQCpX+Q4mep1ya/8Blqqrsql1oaRlb/vNxrIXxunpcGOBqUG/hWNDA6YUZzFPVWWBt4AJiQlvbWp1JhJZyxnSgmdwUPXbMfPuUwmjGuwsA5hsw5pjIJBt7DgwI7r70Y1TL+pQRcJExSB59zHWmbjDUNjs90i66UeR9tOxD9kRYpI0EhUZ0mIkNzr05t/gn6+hjpI0nF+Yy5Mv+nMXOzpbWFA4YFdegltwFdGEtIy+N2gGr9oqhffBKbhUjwgZvrbnx17zbcB5Rw4+oHgybLiK9GNGaK9b/v5auEhHIDc5NXQyCqbz8kmKJ8zUiIn0DcITVOjap/w73wor3XLzJfgT7WfatwdhCAPpDyBm3kknAgyBfkX76XppQLl/nK76Vg/kNkxZAgCQCyxtHufnaAks7YVGuSqe/SSvRPxHgRHT0h4m+bMvSXsR1BSXkmTyxIqwGWGU9ibHCvgnfdLe0PgzQTSRjpQdfMAPUYabnAq/EshL6vYIejJ7kJJ2vLqIM+wGLb49dJG6PZaD+EZIWdm5WZzprk3Yz8y39O3x+VHSpXS7TqQslunycC6sbJShh71Z1EqjS91WRDZtmk3IfArCMlt7viIasNwYNXbxhxgtstkAxZdc9WyXJ3N3t9VnmbcRVIbrvjGJljXTuqjoGhlT0IcB2kw9JCe9SzVCVn5g08y3QxOBUeoN6RddZ90WEOSaFvXZ5KkJ0oWcjgfxxerszhbeoL2YdC4eTymegCUYXQn+PkYKZ92V4I8oGfJM3X4WOILqfCzFx/VDvDbR8/dxzRniiU1Oh7kGCOZrybPANWDAjxG7z9G/9TxomZzpgwY3zyic8Kfyj0s3SBqCNYlkVL2vCc0oI5zaOHaFaHAWyJ+bF3XLM0D0ggE5l26OCkRPsdJ2+KvAPLLH3v7+ukK4t6oShTFEl8SvtMNmvl60Z0Nr57JC2vk5o58XW7sqU3J3fxXwH1emNiZ583NV8D8QMuhfoC5E0J2XzxFz+j/SkTeQvSVZYQAAAABJRU5ErkJggg==;" vertex="1" parent="1">
          <mxGeometry x="462.11" y="347.69000000000005" width="20.89" height="24.09" as="geometry" />
        </mxCell>
      </root>
    </mxGraphModel>
  </diagram>
</mxfile>
